<?xml version="1.0" encoding="utf-8"?>
<svg xmlns="http://www.w3.org/2000/svg" viewBox="-77.1824 -56.965 642.1359 642.1359"
    width="642.136px" height="642.136px">
    <path
        d="M 467.643 33.803 L 446.77 39.917 L 307.015 80.704 L 300.933 82.504 L 300.73 89.067 L 299.895 117.209 L 282.536 122.033 L 276.395 123.71 L 276.137 130.335 L 275.241 153.982 L 151.49 282.101 L 148.838 284.859 L 148.954 288.756 C 149.609 308.318 135.771 319.403 127.963 318.694 C 118.761 317.857 113.819 314.822 110.548 310.602 C 107.278 306.383 105.431 300.12 105.474 291.752 L 105.589 268.585 L 90.509 285.636 C 74.522 303.708 65.877 326.706 65.742 349.863 L 65.685 358.883 L 74.363 358.883 C 85.633 358.886 96.931 361.583 107.32 366.886 L 103.572 380.76 C 84.265 397.316 64.954 419.64 54.7 438.273 C 53.192 441.013 51.954 443.561 50.951 445.914 L 21.512 454.455 L 20.128 494.404 L 58.562 492.966 L 66.866 462.097 C 69.298 460.959 71.675 459.698 73.989 458.319 C 91.831 447.71 113.183 427.768 129.088 407.792 L 142.439 403.895 C 147.37 414.585 149.952 426.168 149.992 437.522 L 150.019 446.452 L 158.613 446.452 C 181.42 446.459 204.489 437.47 222.132 420.051 L 234.963 407.373 L 217.432 404.707 C 207.674 403.215 200.479 399.517 196.183 395.356 C 191.884 391.194 190.338 386.97 190.762 382.289 C 191.734 371.544 194.613 366.901 198.546 364.007 C 202.479 361.113 208.942 359.672 218.009 359.961 L 221.755 360.08 L 224.379 357.323 L 350.149 226.595 L 367.65 226.144 L 374.052 225.966 L 375.753 219.552 L 379.847 204.118 L 410.208 202.737 L 416.435 202.468 L 418.138 196.206 L 460.234 53.463 L 467.643 33.802 L 467.643 33.803 Z M 436.621 61.495 L 403.233 185.118 L 372.812 186.467 L 366.557 186.737 L 364.883 193.061 L 360.818 208.406 L 346.286 208.765 L 342.853 208.855 L 340.404 211.372 L 214.665 342.1 C 205.612 342.196 197.004 343.7 189.694 348.633 L 190.331 330.172 L 323.509 191.743 L 347.902 190.755 L 352.168 174.66 L 353.869 168.276 L 360.241 168.096 L 389.996 167.197 L 411.16 87.987 L 334.954 109.985 L 334.061 138.696 L 333.858 145.29 L 327.717 147.058 L 310.159 152.032 L 309.352 181.132 L 178.104 317.524 L 158.553 318.244 C 162.985 311.008 165.789 302.074 166.137 292.199 L 289.772 164.229 L 292.194 161.741 L 292.31 158.236 L 293.117 137.646 L 310.532 132.822 L 316.732 131.084 L 316.904 124.431 L 317.77 96.199 L 436.62 61.495 L 436.621 61.495 Z M 92.354 313.507 C 93.627 316.457 95.125 319.276 97.111 321.841 C 101.693 327.751 108.165 332.087 116.026 334.517 L 112.019 349.381 C 103 345.179 93.392 342.508 83.561 341.47 C 84.695 331.837 87.664 322.331 92.354 313.508 L 92.354 313.507 Z M 172.855 335.655 L 171.443 376.865 L 118.391 392.298 L 133.212 337.125 L 172.856 335.655 L 172.855 335.655 Z M 175.307 394.367 C 177.157 399.657 180.316 404.509 184.417 408.481 C 188.047 411.996 192.43 414.892 197.364 417.202 C 187.881 423.152 177.37 426.791 166.744 428.02 C 165.741 418.115 163.2 408.308 159.247 399.012 L 175.308 394.366 L 175.307 394.367 Z"
        fill="#fff" fill-opacity="1" style="stroke-width: 1; transform-origin: 243.886px 264.103px;"
        transform="matrix(0.70710701, -0.70710701, 0.70710701, 0.70710701, 0.00001051, -0.00000468)" />
</svg>